<?xml version="1.0" encoding="utf-8"?>
<!-- Generator: Adobe Illustrator 25.2.0, SVG Export Plug-In . SVG Version: 6.00 Build 0)  -->
<svg version="1.1" id="Layer_1" xmlns="http://www.w3.org/2000/svg" xmlns:xlink="http://www.w3.org/1999/xlink" x="0px" y="0px"
	 viewBox="0 0 72 72" style="enable-background:new 0 0 72 72;" xml:space="preserve">
<style type="text/css">
	.st0{fill:url(#SVGID_1_);}
	.st1{fill:url(#SVGID_2_);}
	.st2{fill:url(#SVGID_3_);}
	.st3{fill:url(#SVGID_4_);}
</style>
<linearGradient id="SVGID_1_" gradientUnits="userSpaceOnUse" x1="11" y1="36" x2="61" y2="36">
	<stop  offset="0" style="stop-color:#2CBBB5"/>
	<stop  offset="0.5884" style="stop-color:#117977"/>
	<stop  offset="1" style="stop-color:#004F4F"/>
</linearGradient>
<path class="st0" d="M32.89,31.32L41.02,36l-8.13,4.68V31.32z M51.62,36.03c0,0,0.02-5.1-0.65-7.54c-0.36-1.34-1.41-2.39-2.75-2.75
	C45.78,25.06,36,25.06,36,25.06s-9.78,0-12.22,0.64c-1.31,0.36-2.39,1.44-2.75,2.78C20.38,30.93,20.38,36,20.38,36s0,5.1,0.65,7.52
	c0.36,1.34,1.41,2.39,2.75,2.75C26.25,46.94,36,46.94,36,46.94s9.78,0,12.22-0.64c1.34-0.36,2.39-1.42,2.75-2.75
	C51.62,41.1,51.62,36.03,51.62,36.03 M36,11c13.81,0,25,11.19,25,25S49.81,61,36,61c-13.81,0-25-11.19-25-25S22.19,11,36,11"/>
</svg>
