<?xml version="1.0" encoding="utf-8"?>
<!-- Generator: Adobe Illustrator 25.2.0, SVG Export Plug-In . SVG Version: 6.00 Build 0)  -->
<svg version="1.1" id="Layer_1" xmlns="http://www.w3.org/2000/svg" xmlns:xlink="http://www.w3.org/1999/xlink" x="0px" y="0px"
	 viewBox="0 0 72 72" style="enable-background:new 0 0 72 72;" xml:space="preserve">
<style type="text/css">
	.st0{fill:url(#SVGID_1_);}
	.st1{fill:url(#SVGID_2_);}
	.st2{fill:url(#SVGID_3_);}
	.st3{fill:url(#SVGID_4_);}
</style>
<linearGradient id="SVGID_1_" gradientUnits="userSpaceOnUse" x1="11" y1="36" x2="61" y2="36">
	<stop  offset="0" style="stop-color:#2CBBB5"/>
	<stop  offset="0.5884" style="stop-color:#117977"/>
	<stop  offset="1" style="stop-color:#004F4F"/>
</linearGradient>
<path class="st0" d="M33.55,37.66c-0.04,2.06-1.3,3.5-3.04,3.48c-1.68-0.02-3.04-1.55-2.99-3.36c0.05-1.79,1.47-3.25,3.09-3.19
	C32.32,34.66,33.59,35.98,33.55,37.66z M41.22,34.58c-1.67-0.03-3.04,1.47-3.02,3.32c0.01,1.81,1.35,3.24,3.02,3.23
	c1.66-0.01,3.02-1.48,3.01-3.26C44.21,36.1,42.85,34.61,41.22,34.58z M61,36c0,13.81-11.19,25-25,25c-13.81,0-25-11.19-25-25
	c0-13.81,11.19-25,25-25C49.81,11,61,22.19,61,36z M52.99,43.02c-0.19-5.44-1.49-10.62-3.85-15.52c-0.13-0.28-0.27-0.61-0.5-0.78
	c-2.25-1.64-4.74-2.68-7.53-2.9c-0.22-0.02-0.45,0.13-0.68,0.2c2.34,1.02,4.6,1.95,6.54,3.55c-3.58-1.7-7.33-2.63-11.3-2.55
	c-3.97,0.07-7.78,0.87-11.35,2.69c2.11-1.79,4.62-2.76,7.16-3.75c-0.28-0.12-0.52-0.17-0.76-0.14c-2.69,0.27-5.11,1.28-7.29,2.85
	c-0.2,0.14-0.34,0.39-0.45,0.61c-2.44,5.06-3.84,10.38-3.95,16.02c-0.01,0.32,0.09,0.7,0.28,0.94c2.09,2.64,4.92,3.76,8.19,3.96
	c0.14,0.01,0.33,0,0.41-0.08c0.62-0.72,1.22-1.46,1.86-2.24c-2.68-1.02-4.28-2.14-4.78-3.27c7.4,4.08,14.83,4.21,22.29,0.04
	c-1.25,1.7-3.02,2.59-5,3.31c0.57,0.7,1.06,1.34,1.6,1.93c0.16,0.18,0.49,0.31,0.73,0.3c3.08-0.18,5.77-1.25,7.83-3.62
	C52.76,44.17,53.01,43.53,52.99,43.02z"/>
</svg>
