<?xml version="1.0" encoding="utf-8"?>
<!-- Generator: Adobe Illustrator 24.0.0, SVG Export Plug-In . SVG Version: 6.00 Build 0)  -->
<svg version="1.1" id="Layer_1" xmlns="http://www.w3.org/2000/svg" xmlns:xlink="http://www.w3.org/1999/xlink" x="0px" y="0px"
	 viewBox="0 0 300 139.68" style="enable-background:new 0 0 300 139.68;" xml:space="preserve">
<style type="text/css">
	.st0{clip-path:url(#SVGID_2_);fill:url(#SVGID_3_);}
	.st1{clip-path:url(#SVGID_5_);fill:url(#SVGID_6_);}
	.st2{clip-path:url(#SVGID_8_);fill:url(#SVGID_9_);}
	.st3{clip-path:url(#SVGID_12_);fill:url(#SVGID_13_);stroke:#FFFFFF;stroke-miterlimit:10;}
	.st4{clip-path:url(#SVGID_16_);fill:url(#SVGID_17_);stroke:#FFFFFF;stroke-miterlimit:10;}
	.st5{clip-path:url(#SVGID_19_);fill:url(#SVGID_20_);}
	.st6{fill:#FFFFFF;}
	.st7{clip-path:url(#SVGID_22_);fill:url(#SVGID_23_);}
	.st8{clip-path:url(#SVGID_25_);fill:url(#SVGID_26_);}
	.st9{clip-path:url(#SVGID_28_);fill:url(#SVGID_29_);}
	.st10{clip-path:url(#SVGID_31_);fill:url(#SVGID_32_);}
	.st11{clip-path:url(#SVGID_35_);fill:url(#SVGID_36_);stroke:#FFFFFF;stroke-miterlimit:10;}
	.st12{clip-path:url(#SVGID_39_);fill:url(#SVGID_40_);stroke:#FFFFFF;stroke-miterlimit:10;}
	.st13{clip-path:url(#SVGID_42_);fill:url(#SVGID_43_);}
	.st14{clip-path:url(#SVGID_45_);fill:url(#SVGID_46_);}
	.st15{clip-path:url(#SVGID_48_);}
	.st16{clip-path:url(#SVGID_50_);}
	.st17{clip-path:url(#SVGID_52_);}
	.st18{clip-path:url(#SVGID_54_);stroke:#FFFFFF;stroke-miterlimit:10;}
	.st19{clip-path:url(#SVGID_56_);stroke:#FFFFFF;stroke-miterlimit:10;}
	.st20{clip-path:url(#SVGID_58_);}
	.st21{clip-path:url(#SVGID_60_);fill:#4F4F4F;}
	.st22{clip-path:url(#SVGID_62_);fill:url(#SVGID_63_);}
	.st23{clip-path:url(#SVGID_65_);fill:url(#SVGID_66_);}
	.st24{clip-path:url(#SVGID_68_);fill:url(#SVGID_69_);}
	.st25{clip-path:url(#SVGID_72_);fill:url(#SVGID_73_);stroke:#FFFFFF;stroke-miterlimit:10;}
	.st26{clip-path:url(#SVGID_76_);fill:url(#SVGID_77_);stroke:#FFFFFF;stroke-miterlimit:10;}
	.st27{clip-path:url(#SVGID_79_);fill:url(#SVGID_80_);}
	.st28{clip-path:url(#SVGID_82_);fill:url(#SVGID_83_);}
	.st29{clip-path:url(#SVGID_85_);fill:url(#SVGID_86_);}
	.st30{clip-path:url(#SVGID_88_);fill:url(#SVGID_89_);}
	.st31{clip-path:url(#SVGID_91_);fill:url(#SVGID_92_);}
	.st32{clip-path:url(#SVGID_95_);fill:url(#SVGID_96_);stroke:#FFFFFF;stroke-miterlimit:10;}
	.st33{clip-path:url(#SVGID_99_);fill:url(#SVGID_100_);stroke:#FFFFFF;stroke-miterlimit:10;}
	.st34{clip-path:url(#SVGID_102_);fill:url(#SVGID_103_);}
	.st35{clip-path:url(#SVGID_105_);fill:url(#SVGID_106_);}
</style>
<g>
	<g>
		<defs>
			<path id="SVGID_61_" d="M99.38,20.03L66.6,39.18v17.37l34.81-8.64V21.19c0-0.79-0.65-1.35-1.35-1.35
				C99.83,19.84,99.6,19.9,99.38,20.03"/>
		</defs>
		<clipPath id="SVGID_2_">
			<use xlink:href="#SVGID_61_"  style="overflow:visible;"/>
		</clipPath>
		
			<linearGradient id="SVGID_3_" gradientUnits="userSpaceOnUse" x1="1.369894e-05" y1="225.2529" x2="1" y2="225.2529" gradientTransform="matrix(34.8083 0 0 -34.8083 66.6035 7878.8716)">
			<stop  offset="0" style="stop-color:#00C4BA"/>
			<stop  offset="0.618" style="stop-color:#007975"/>
			<stop  offset="1" style="stop-color:#004F4F"/>
		</linearGradient>
		<rect x="66.6" y="19.84" class="st0" width="34.81" height="36.7"/>
	</g>
	<g>
		<defs>
			<path id="SVGID_64_" d="M66.6,100.5l32.77,19.15c0.9,0.53,2.04-0.12,2.04-1.17V91.77L66.6,83.14V100.5z"/>
		</defs>
		<clipPath id="SVGID_5_">
			<use xlink:href="#SVGID_64_"  style="overflow:visible;"/>
		</clipPath>
		
			<linearGradient id="SVGID_6_" gradientUnits="userSpaceOnUse" x1="1.369894e-05" y1="225.2481" x2="1" y2="225.2481" gradientTransform="matrix(34.8083 0 0 -34.8083 66.6035 7942.1685)">
			<stop  offset="0" style="stop-color:#00C4BA"/>
			<stop  offset="0.618" style="stop-color:#007975"/>
			<stop  offset="1" style="stop-color:#004F4F"/>
		</linearGradient>
		<rect x="66.6" y="83.14" class="st1" width="34.81" height="37.04"/>
	</g>
	<g>
		<defs>
			<polygon id="SVGID_67_" points="66.6,83.14 79.75,69.85 66.6,56.54 			"/>
		</defs>
		<clipPath id="SVGID_8_">
			<use xlink:href="#SVGID_67_"  style="overflow:visible;"/>
		</clipPath>
		
			<linearGradient id="SVGID_9_" gradientUnits="userSpaceOnUse" x1="1.844692e-07" y1="226.601" x2="1" y2="226.601" gradientTransform="matrix(20.6792 0 0 -20.6792 62.2835 4755.7739)">
			<stop  offset="0" style="stop-color:#004F4F"/>
			<stop  offset="0.0638" style="stop-color:#005D5C"/>
			<stop  offset="0.2539" style="stop-color:#00827E"/>
			<stop  offset="0.4445" style="stop-color:#009F98"/>
			<stop  offset="0.6332" style="stop-color:#00B3AB"/>
			<stop  offset="0.8194" style="stop-color:#00C0B6"/>
			<stop  offset="1" style="stop-color:#00C4BA"/>
		</linearGradient>
		<rect x="66.6" y="56.54" class="st2" width="13.14" height="26.59"/>
	</g>
	<g>
		<defs>
			<polygon id="SVGID_70_" points="66.6,83.14 101.41,91.77 79.75,69.85 			"/>
		</defs>
		<linearGradient id="SVGID_11_" gradientUnits="userSpaceOnUse" x1="66.604" y1="80.8125" x2="101.412" y2="80.8125">
			<stop  offset="0" style="stop-color:#00C4BA"/>
			<stop  offset="0.618" style="stop-color:#007975"/>
			<stop  offset="1" style="stop-color:#004F4F"/>
		</linearGradient>
		<use xlink:href="#SVGID_70_"  style="overflow:visible;fill:url(#SVGID_11_);"/>
		<clipPath id="SVGID_12_">
			<use xlink:href="#SVGID_70_"  style="overflow:visible;"/>
		</clipPath>
		
			<linearGradient id="SVGID_13_" gradientUnits="userSpaceOnUse" x1="4.0865" y1="224.4809" x2="5.0865" y2="224.4809" gradientTransform="matrix(4.2014 -15.6797 -15.6797 -4.2014 3584.8748 1094.5303)">
			<stop  offset="0" style="stop-color:#00C4BA"/>
			<stop  offset="0.618" style="stop-color:#007975"/>
			<stop  offset="1" style="stop-color:#004F4F"/>
		</linearGradient>
		<polygon class="st3" points="61.12,90.3 68.94,61.15 106.89,71.32 99.08,100.47 		"/>
		<use xlink:href="#SVGID_70_"  style="overflow:visible;fill:none;stroke:#FFFFFF;stroke-miterlimit:10;"/>
	</g>
	<g>
		<defs>
			<polygon id="SVGID_74_" points="66.6,56.54 79.75,69.83 101.41,47.91 			"/>
		</defs>
		<linearGradient id="SVGID_15_" gradientUnits="userSpaceOnUse" x1="66.604" y1="58.868" x2="101.412" y2="58.868">
			<stop  offset="0" style="stop-color:#00C4BA"/>
			<stop  offset="0.618" style="stop-color:#007975"/>
			<stop  offset="1" style="stop-color:#004F4F"/>
		</linearGradient>
		<use xlink:href="#SVGID_74_"  style="overflow:visible;fill:url(#SVGID_15_);"/>
		<clipPath id="SVGID_16_">
			<use xlink:href="#SVGID_74_"  style="overflow:visible;"/>
		</clipPath>
		
			<linearGradient id="SVGID_17_" gradientUnits="userSpaceOnUse" x1="-4.0865" y1="224.2691" x2="-3.0865" y2="224.2691" gradientTransform="matrix(4.2014 15.6797 15.6797 -4.2014 -3417.0325 1058.6558)">
			<stop  offset="0" style="stop-color:#00C4BA"/>
			<stop  offset="0.618" style="stop-color:#007975"/>
			<stop  offset="1" style="stop-color:#004F4F"/>
		</linearGradient>
		<polygon class="st4" points="99.08,39.21 106.89,68.36 68.94,78.53 61.12,49.38 		"/>
		<use xlink:href="#SVGID_74_"  style="overflow:visible;fill:none;stroke:#FFFFFF;stroke-miterlimit:10;"/>
	</g>
	<g>
		<defs>
			<path id="SVGID_78_" d="M111.05,56.51c-1.66,0-3,1.34-3,3v45.51c0,1.66,1.34,3,3,3H230.4c1.66,0,3-1.34,3-3V59.51
				c0-1.66-1.34-3-3-3H111.05z"/>
		</defs>
		<clipPath id="SVGID_19_">
			<use xlink:href="#SVGID_78_"  style="overflow:visible;"/>
		</clipPath>
		
			<linearGradient id="SVGID_20_" gradientUnits="userSpaceOnUse" x1="3.466357e-08" y1="223.904" x2="1" y2="223.904" gradientTransform="matrix(110.0504 0 0 -110.0504 117.8138 24722.9922)">
			<stop  offset="0" style="stop-color:#004F4F"/>
			<stop  offset="0.382" style="stop-color:#007975"/>
			<stop  offset="1" style="stop-color:#00C4BA"/>
		</linearGradient>
		<rect x="108.05" y="56.51" class="st5" width="125.35" height="51.51"/>
	</g>
	<path class="st6" d="M131.53,63.8h0.72l25.08,32.23v4.71l-25.8-31.95V63.8z M135.15,78.78v21.59h-3.62V74.34L135.15,78.78z"/>
	<path class="st6" d="M183.62,64.16v3.35H165.2v13.13h-3.35V64.16H183.62z M181.09,84.44v3.35H165.2v12.58h-3.35V84.44H181.09z"/>
	<path class="st6" d="M188.15,67.51v-3.35h21.77v3.35h-9.23l-0.05,13.13h-3.35V67.51H188.15z M200.64,100.37h-3.35V84.44h3.35
		V100.37z"/>
	<g>
		<defs>
			<path id="SVGID_81_" d="M113.88,33.41c-1.84,1.05-3.27,2.52-4.29,4.4c-1.02,1.88-1.53,4.01-1.53,6.38c0,2.31,0.52,4.41,1.58,6.29
				c1.05,1.88,2.51,3.36,4.38,4.43c1.87,1.06,3.97,1.6,6.32,1.6c3.2,0,5.87-0.99,8-2.98c0.36-0.36,0.53-0.76,0.53-1.2
				c0-0.59-0.28-1.13-0.84-1.6c-0.35-0.26-0.74-0.4-1.15-0.4c-0.53,0-1.08,0.21-1.65,0.62c-1.24,1.04-2.87,1.56-4.89,1.56
				c-1.54,0-2.91-0.36-4.11-1.07c-1.2-0.71-2.13-1.7-2.8-2.96c-0.67-1.26-1-2.69-1-4.29c0-2.52,0.71-4.54,2.14-6.07
				c1.42-1.53,3.28-2.29,5.56-2.29c1.13,0,2.13,0.19,3,0.56c0.87,0.37,1.68,0.96,2.42,1.76c0.48,0.53,1.05,0.8,1.74,0.8
				c0.38,0,0.73-0.1,1.02-0.31c0.65-0.44,0.98-0.99,0.98-1.65c0-0.44-0.15-0.83-0.44-1.15c-2.31-2.67-5.22-4-8.71-4
				C117.79,31.83,115.71,32.35,113.88,33.41 M144.64,32.72c-1.31,0.6-2.41,1.41-3.3,2.45v-0.85c0-1.49-0.74-2.23-2.23-2.23
				c-0.71,0-1.26,0.19-1.65,0.58c-0.39,0.39-0.58,0.94-0.58,1.65v19.95c0,0.74,0.19,1.3,0.58,1.67c0.39,0.37,0.94,0.56,1.65,0.56
				c0.75,0,1.3-0.19,1.67-0.58c0.37-0.39,0.56-0.94,0.56-1.65V41.24c0-1.67,0.65-2.99,1.96-3.97c1.31-0.98,3.04-1.47,5.18-1.47
				c0.74,0,1.71,0.1,2.9,0.31c0.3,0.06,0.52,0.09,0.67,0.09c0.92,0,1.52-0.48,1.79-1.43c0.03-0.09,0.04-0.24,0.04-0.45
				c0-0.71-0.45-1.31-1.34-1.78c-0.89-0.47-2.13-0.71-3.71-0.71C147.35,31.83,145.95,32.13,144.64,32.72 M164.63,51.41
				c-1.2-0.72-2.15-1.72-2.85-2.98c-0.7-1.26-1.05-2.68-1.05-4.25c0-1.57,0.35-2.99,1.05-4.27c0.7-1.27,1.65-2.27,2.85-3
				c1.2-0.73,2.54-1.09,4.02-1.09c1.48,0,2.82,0.36,4.02,1.09c1.2,0.73,2.14,1.73,2.82,3c0.68,1.28,1.02,2.7,1.02,4.27
				c0,1.57-0.34,2.99-1.02,4.25c-0.68,1.26-1.62,2.25-2.82,2.98c-1.2,0.73-2.54,1.09-4.02,1.09
				C167.17,52.5,165.83,52.14,164.63,51.41 M162.41,33.45c-1.88,1.08-3.36,2.56-4.42,4.45c-1.07,1.88-1.6,3.98-1.6,6.29
				s0.5,4.41,1.49,6.29c0.99,1.88,2.36,3.36,4.09,4.43c1.74,1.06,3.67,1.6,5.8,1.6c1.72,0,3.32-0.36,4.8-1.07
				c1.48-0.71,2.74-1.7,3.78-2.98v1.65c0,0.65,0.21,1.19,0.65,1.62c0.43,0.43,0.97,0.64,1.62,0.64c0.65,0,1.19-0.21,1.62-0.64
				c0.43-0.43,0.65-0.97,0.65-1.62v-9.92c0-2.31-0.54-4.41-1.62-6.29c-1.08-1.88-2.55-3.37-4.4-4.45c-1.85-1.08-3.92-1.62-6.2-1.62
				C166.37,31.83,164.29,32.37,162.41,33.45 M188.95,31.83c-1.41,0-2.12,0.71-2.12,2.12c0,1.41,0.71,2.12,2.12,2.12h11.5
				l-12.77,16.87c-0.27,0.36-0.41,0.84-0.41,1.44c0,1.41,0.71,2.12,2.12,2.12h15.38c1.41,0,2.12-0.71,2.12-2.12
				s-0.71-2.12-2.12-2.12h-11.46l12.72-16.87c0.27-0.36,0.41-0.84,0.41-1.44c0-1.41-0.71-2.12-2.12-2.12H188.95z M229.22,33.12
				l-7.16,16.14l-8.14-16.18c-0.41-0.83-1.04-1.25-1.87-1.25c-0.33,0-0.62,0.06-0.89,0.18c-0.39,0.18-0.7,0.43-0.93,0.76
				c-0.24,0.33-0.36,0.68-0.36,1.07c0,0.35,0.07,0.67,0.22,0.93l10,18.99l-4.45,10.01c-0.18,0.36-0.27,0.71-0.27,1.07
				c0,0.77,0.44,1.35,1.33,1.73c0.41,0.18,0.77,0.27,1.07,0.27c0.8,0,1.38-0.46,1.74-1.38l13.61-30.59
				c0.18-0.42,0.27-0.77,0.27-1.07c0-0.8-0.46-1.38-1.38-1.73c-0.33-0.15-0.68-0.22-1.07-0.22
				C230.18,31.83,229.6,32.26,229.22,33.12"/>
		</defs>
		<clipPath id="SVGID_22_">
			<use xlink:href="#SVGID_81_"  style="overflow:visible;"/>
		</clipPath>
		
			<linearGradient id="SVGID_23_" gradientUnits="userSpaceOnUse" x1="-2.647697e-06" y1="223.8279" x2="1" y2="223.8279" gradientTransform="matrix(125.3461 0 0 -125.3461 108.0503 28105.2832)">
			<stop  offset="0" style="stop-color:#00C4BA"/>
			<stop  offset="0.618" style="stop-color:#007975"/>
			<stop  offset="1" style="stop-color:#004F4F"/>
		</linearGradient>
		<rect x="108.05" y="31.83" class="st7" width="125.35" height="34.99"/>
	</g>
</g>
</svg>
